<svg xmlns="http://www.w3.org/2000/svg" xmlns:xlink="http://www.w3.org/1999/xlink" width="500" zoomAndPan="magnify" viewBox="0 0 375 374.999991" height="500" preserveAspectRatio="xMidYMid meet" version="1.0"><defs><g/><clipPath id="46ca1fefc4"><path d="M 180 193.003906 L 194 193.003906 L 194 217.003906 L 180 217.003906 Z M 180 193.003906 " clip-rule="nonzero"/></clipPath><clipPath id="01a1f15413"><path d="M 174.164062 199 L 182 199 L 182 211 L 174.164062 211 Z M 174.164062 199 " clip-rule="nonzero"/></clipPath><clipPath id="e950331f8b"><path d="M 194 199 L 201.164062 199 L 201.164062 211 L 194 211 Z M 194 199 " clip-rule="nonzero"/></clipPath></defs><g clip-path="url(#46ca1fefc4)"><path fill="#000000" d="M 192.328125 193.507812 L 180.78125 215.960938 C 180.59375 216.320312 180.742188 216.757812 181.113281 216.9375 C 181.21875 216.988281 181.335938 217.015625 181.445312 217.015625 C 181.71875 217.015625 181.984375 216.867188 182.113281 216.613281 L 193.660156 194.164062 C 193.847656 193.804688 193.695312 193.367188 193.328125 193.183594 C 192.960938 193.003906 192.511719 193.148438 192.328125 193.507812 Z M 192.328125 193.507812 " fill-opacity="1" fill-rule="nonzero"/></g><g clip-path="url(#01a1f15413)"><path fill="#000000" d="M 180.496094 210.597656 C 180.707031 210.597656 180.914062 210.511719 181.0625 210.347656 C 181.332031 210.042969 181.296875 209.582031 180.984375 209.320312 L 176.101562 205.21875 L 180.984375 201.113281 C 181.296875 200.847656 181.332031 200.390625 181.0625 200.085938 C 180.792969 199.78125 180.320312 199.746094 180.007812 200.007812 L 174.46875 204.664062 C 174.304688 204.804688 174.210938 205.003906 174.210938 205.21875 C 174.210938 205.429688 174.304688 205.628906 174.472656 205.769531 L 180.007812 210.421875 C 180.148438 210.542969 180.324219 210.597656 180.496094 210.597656 Z M 180.496094 210.597656 " fill-opacity="1" fill-rule="nonzero"/></g><g clip-path="url(#e950331f8b)"><path fill="#000000" d="M 194.238281 210.347656 C 194.386719 210.511719 194.59375 210.597656 194.804688 210.597656 C 194.976562 210.597656 195.152344 210.542969 195.292969 210.421875 L 200.828125 205.769531 C 200.996094 205.628906 201.089844 205.429688 201.089844 205.21875 C 201.089844 205.003906 200.996094 204.804688 200.832031 204.664062 L 195.292969 200.007812 C 194.980469 199.746094 194.507812 199.78125 194.238281 200.085938 C 193.972656 200.390625 194.003906 200.847656 194.316406 201.113281 L 199.199219 205.21875 L 194.316406 209.320312 C 194.003906 209.582031 193.972656 210.042969 194.238281 210.347656 Z M 194.238281 210.347656 " fill-opacity="1" fill-rule="nonzero"/></g><g fill="#200e3a" fill-opacity="1"><g transform="translate(70.474219, 185.473992)"><g><path d="M 25.640625 -16.578125 L 21.15625 0 L 15.53125 0 L 12.921875 -10.75 L 10.21875 0 L 4.640625 0 L 0.125 -16.578125 L 5.203125 -16.578125 L 7.546875 -4.71875 L 10.34375 -16.578125 L 15.71875 -16.578125 L 18.53125 -4.78125 L 20.859375 -16.578125 Z M 25.640625 -16.578125 "/></g></g></g><g fill="#000000" fill-opacity="1"><g transform="translate(96.196873, 185.473992)"><g><path d="M 9.390625 0.234375 C 7.765625 0.234375 6.300781 -0.109375 5 -0.796875 C 3.707031 -1.492188 2.6875 -2.484375 1.9375 -3.765625 C 1.195312 -5.054688 0.828125 -6.5625 0.828125 -8.28125 C 0.828125 -9.988281 1.203125 -11.488281 1.953125 -12.78125 C 2.710938 -14.082031 3.742188 -15.078125 5.046875 -15.765625 C 6.359375 -16.460938 7.828125 -16.8125 9.453125 -16.8125 C 11.066406 -16.8125 12.523438 -16.460938 13.828125 -15.765625 C 15.140625 -15.078125 16.171875 -14.082031 16.921875 -12.78125 C 17.679688 -11.488281 18.0625 -9.988281 18.0625 -8.28125 C 18.0625 -6.582031 17.675781 -5.082031 16.90625 -3.78125 C 16.144531 -2.488281 15.109375 -1.492188 13.796875 -0.796875 C 12.484375 -0.109375 11.015625 0.234375 9.390625 0.234375 Z M 9.390625 -4.15625 C 10.359375 -4.15625 11.179688 -4.507812 11.859375 -5.21875 C 12.546875 -5.9375 12.890625 -6.957031 12.890625 -8.28125 C 12.890625 -9.613281 12.554688 -10.632812 11.890625 -11.34375 C 11.234375 -12.0625 10.421875 -12.421875 9.453125 -12.421875 C 8.453125 -12.421875 7.625 -12.066406 6.96875 -11.359375 C 6.320312 -10.660156 6 -9.632812 6 -8.28125 C 6 -6.957031 6.320312 -5.9375 6.96875 -5.21875 C 7.613281 -4.507812 8.421875 -4.15625 9.390625 -4.15625 Z M 9.390625 -4.15625 "/></g></g></g><g fill="#000000" fill-opacity="1"><g transform="translate(115.112765, 185.473992)"><g><path d="M 6.921875 -13.8125 C 7.515625 -14.71875 8.253906 -15.429688 9.140625 -15.953125 C 10.035156 -16.484375 11.03125 -16.75 12.125 -16.75 L 12.125 -11.375 L 10.71875 -11.375 C 9.457031 -11.375 8.507812 -11.101562 7.875 -10.5625 C 7.238281 -10.019531 6.921875 -9.0625 6.921875 -7.6875 L 6.921875 0 L 1.84375 0 L 1.84375 -16.578125 L 6.921875 -16.578125 Z M 6.921875 -13.8125 "/></g></g></g><g fill="#000000" fill-opacity="1"><g transform="translate(127.822344, 185.473992)"><g><path d="M 11.96875 0 L 6.921875 -6.953125 L 6.921875 0 L 1.84375 0 L 1.84375 -21.984375 L 6.921875 -21.984375 L 6.921875 -9.828125 L 11.9375 -16.578125 L 18.203125 -16.578125 L 11.3125 -8.25 L 18.265625 0 Z M 11.96875 0 "/></g></g></g><g fill="#5ce1e6" fill-opacity="1"><g transform="translate(146.177339, 185.473992)"><g><path d="M 4.21875 0.234375 C 3.320312 0.234375 2.59375 -0.0234375 2.03125 -0.546875 C 1.46875 -1.078125 1.1875 -1.726562 1.1875 -2.5 C 1.1875 -3.289062 1.46875 -3.953125 2.03125 -4.484375 C 2.59375 -5.015625 3.320312 -5.28125 4.21875 -5.28125 C 5.09375 -5.28125 5.8125 -5.015625 6.375 -4.484375 C 6.9375 -3.953125 7.21875 -3.289062 7.21875 -2.5 C 7.21875 -1.726562 6.9375 -1.078125 6.375 -0.546875 C 5.8125 -0.0234375 5.09375 0.234375 4.21875 0.234375 Z M 4.21875 0.234375 "/></g></g></g><g fill="#000000" fill-opacity="1"><g transform="translate(154.556244, 185.473992)"><g><path d="M 25.640625 -16.578125 L 21.15625 0 L 15.53125 0 L 12.921875 -10.75 L 10.21875 0 L 4.640625 0 L 0.125 -16.578125 L 5.203125 -16.578125 L 7.546875 -4.71875 L 10.34375 -16.578125 L 15.71875 -16.578125 L 18.53125 -4.78125 L 20.859375 -16.578125 Z M 25.640625 -16.578125 "/></g></g></g><g fill="#000000" fill-opacity="1"><g transform="translate(180.272353, 185.473992)"><g><path d="M 4.390625 -18.296875 C 3.503906 -18.296875 2.773438 -18.554688 2.203125 -19.078125 C 1.640625 -19.609375 1.359375 -20.257812 1.359375 -21.03125 C 1.359375 -21.820312 1.640625 -22.476562 2.203125 -23 C 2.773438 -23.53125 3.503906 -23.796875 4.390625 -23.796875 C 5.265625 -23.796875 5.984375 -23.53125 6.546875 -23 C 7.109375 -22.476562 7.390625 -21.820312 7.390625 -21.03125 C 7.390625 -20.257812 7.109375 -19.609375 6.546875 -19.078125 C 5.984375 -18.554688 5.265625 -18.296875 4.390625 -18.296875 Z M 6.921875 -16.578125 L 6.921875 0 L 1.84375 0 L 1.84375 -16.578125 Z M 6.921875 -16.578125 "/></g></g></g><g fill="#000000" fill-opacity="1"><g transform="translate(189.032461, 185.473992)"><g><path d="M 11.078125 -4.3125 L 11.078125 0 L 8.5 0 C 6.65625 0 5.21875 -0.445312 4.1875 -1.34375 C 3.15625 -2.25 2.640625 -3.722656 2.640625 -5.765625 L 2.640625 -12.359375 L 0.625 -12.359375 L 0.625 -16.578125 L 2.640625 -16.578125 L 2.640625 -20.609375 L 7.71875 -20.609375 L 7.71875 -16.578125 L 11.046875 -16.578125 L 11.046875 -12.359375 L 7.71875 -12.359375 L 7.71875 -5.703125 C 7.71875 -5.203125 7.835938 -4.84375 8.078125 -4.625 C 8.316406 -4.414062 8.710938 -4.3125 9.265625 -4.3125 Z M 11.078125 -4.3125 "/></g></g></g><g fill="#000000" fill-opacity="1"><g transform="translate(201.088743, 185.473992)"><g><path d="M 12.03125 -16.75 C 13.925781 -16.75 15.445312 -16.117188 16.59375 -14.859375 C 17.75 -13.609375 18.328125 -11.882812 18.328125 -9.6875 L 18.328125 0 L 13.28125 0 L 13.28125 -9 C 13.28125 -10.101562 12.988281 -10.960938 12.40625 -11.578125 C 11.832031 -12.191406 11.0625 -12.5 10.09375 -12.5 C 9.125 -12.5 8.351562 -12.191406 7.78125 -11.578125 C 7.207031 -10.960938 6.921875 -10.101562 6.921875 -9 L 6.921875 0 L 1.84375 0 L 1.84375 -21.984375 L 6.921875 -21.984375 L 6.921875 -14.34375 C 7.429688 -15.082031 8.128906 -15.664062 9.015625 -16.09375 C 9.910156 -16.53125 10.914062 -16.75 12.03125 -16.75 Z M 12.03125 -16.75 "/></g></g></g><g fill="#0cc0df" fill-opacity="1"><g transform="translate(221.107025, 185.473992)"><g><path d="M 4.21875 0.234375 C 3.320312 0.234375 2.59375 -0.0234375 2.03125 -0.546875 C 1.46875 -1.078125 1.1875 -1.726562 1.1875 -2.5 C 1.1875 -3.289062 1.46875 -3.953125 2.03125 -4.484375 C 2.59375 -5.015625 3.320312 -5.28125 4.21875 -5.28125 C 5.09375 -5.28125 5.8125 -5.015625 6.375 -4.484375 C 6.9375 -3.953125 7.21875 -3.289062 7.21875 -2.5 C 7.21875 -1.726562 6.9375 -1.078125 6.375 -0.546875 C 5.8125 -0.0234375 5.09375 0.234375 4.21875 0.234375 Z M 4.21875 0.234375 "/></g></g></g><g fill="#ff3131" fill-opacity="1"><g transform="translate(229.485927, 185.473992)"><g><path d="M 9.296875 -4.75 L 12.890625 -16.578125 L 18.296875 -16.578125 L 12.421875 0 L 6.15625 0 L 0.265625 -16.578125 L 5.703125 -16.578125 Z M 9.296875 -4.75 "/></g></g></g><g fill="#000000" fill-opacity="1"><g transform="translate(248.083586, 185.473992)"><g><path d="M 4.390625 -18.296875 C 3.503906 -18.296875 2.773438 -18.554688 2.203125 -19.078125 C 1.640625 -19.609375 1.359375 -20.257812 1.359375 -21.03125 C 1.359375 -21.820312 1.640625 -22.476562 2.203125 -23 C 2.773438 -23.53125 3.503906 -23.796875 4.390625 -23.796875 C 5.265625 -23.796875 5.984375 -23.53125 6.546875 -23 C 7.109375 -22.476562 7.390625 -21.820312 7.390625 -21.03125 C 7.390625 -20.257812 7.109375 -19.609375 6.546875 -19.078125 C 5.984375 -18.554688 5.265625 -18.296875 4.390625 -18.296875 Z M 6.921875 -16.578125 L 6.921875 0 L 1.84375 0 L 1.84375 -16.578125 Z M 6.921875 -16.578125 "/></g></g></g><g fill="#000000" fill-opacity="1"><g transform="translate(256.843694, 185.473992)"><g><path d="M 4.359375 -18.296875 C 3.472656 -18.296875 2.75 -18.554688 2.1875 -19.078125 C 1.625 -19.609375 1.34375 -20.257812 1.34375 -21.03125 C 1.34375 -21.820312 1.625 -22.476562 2.1875 -23 C 2.75 -23.53125 3.472656 -23.796875 4.359375 -23.796875 C 5.234375 -23.796875 5.953125 -23.53125 6.515625 -23 C 7.078125 -22.476562 7.359375 -21.820312 7.359375 -21.03125 C 7.359375 -20.257812 7.078125 -19.609375 6.515625 -19.078125 C 5.953125 -18.554688 5.234375 -18.296875 4.359375 -18.296875 Z M 6.921875 2.140625 C 6.921875 4.179688 6.40625 5.648438 5.375 6.546875 C 4.34375 7.453125 2.90625 7.90625 1.0625 7.90625 L -0.921875 7.90625 L -0.921875 3.59375 L 0.296875 3.59375 C 0.847656 3.59375 1.242188 3.484375 1.484375 3.265625 C 1.722656 3.046875 1.84375 2.691406 1.84375 2.203125 L 1.84375 -16.578125 L 6.921875 -16.578125 Z M 6.921875 2.140625 "/></g></g></g><g fill="#000000" fill-opacity="1"><g transform="translate(265.574105, 185.473992)"><g><path d="M 0.828125 -8.3125 C 0.828125 -10.019531 1.148438 -11.515625 1.796875 -12.796875 C 2.441406 -14.085938 3.316406 -15.078125 4.421875 -15.765625 C 5.535156 -16.460938 6.773438 -16.8125 8.140625 -16.8125 C 9.304688 -16.8125 10.328125 -16.570312 11.203125 -16.09375 C 12.085938 -15.625 12.769531 -15.003906 13.25 -14.234375 L 13.25 -16.578125 L 18.328125 -16.578125 L 18.328125 0 L 13.25 0 L 13.25 -2.34375 C 12.75 -1.570312 12.054688 -0.945312 11.171875 -0.46875 C 10.296875 0 9.273438 0.234375 8.109375 0.234375 C 6.765625 0.234375 5.535156 -0.113281 4.421875 -0.8125 C 3.316406 -1.519531 2.441406 -2.519531 1.796875 -3.8125 C 1.148438 -5.113281 0.828125 -6.613281 0.828125 -8.3125 Z M 13.25 -8.28125 C 13.25 -9.550781 12.894531 -10.550781 12.1875 -11.28125 C 11.488281 -12.019531 10.632812 -12.390625 9.625 -12.390625 C 8.613281 -12.390625 7.753906 -12.023438 7.046875 -11.296875 C 6.347656 -10.578125 6 -9.582031 6 -8.3125 C 6 -7.050781 6.347656 -6.046875 7.046875 -5.296875 C 7.753906 -4.554688 8.613281 -4.1875 9.625 -4.1875 C 10.632812 -4.1875 11.488281 -4.550781 12.1875 -5.28125 C 12.894531 -6.019531 13.25 -7.019531 13.25 -8.28125 Z M 13.25 -8.28125 "/></g></g></g><g fill="#000000" fill-opacity="1"><g transform="translate(285.737197, 185.473992)"><g><path d="M 18.765625 -16.578125 L 8.375 7.875 L 2.90625 7.875 L 6.71875 -0.5625 L -0.03125 -16.578125 L 5.640625 -16.578125 L 9.46875 -6.203125 L 13.28125 -16.578125 Z M 18.765625 -16.578125 "/></g></g></g></svg>